<mxfile host="Electron" agent="Mozilla/5.0 (Windows NT 10.0; Win64; x64) AppleWebKit/537.36 (KHTML, like Gecko) draw.io/28.0.4 Chrome/138.0.7204.97 Electron/37.2.1 Safari/537.36" version="28.0.4">
  <diagram name="Страница — 1" id="6zLJe0z5hd1byPzYl8BZ">
    <mxGraphModel dx="1426" dy="849" grid="1" gridSize="10" guides="1" tooltips="1" connect="1" arrows="1" fold="1" page="1" pageScale="1" pageWidth="827" pageHeight="1169" math="0" shadow="0">
      <root>
        <mxCell id="0" />
        <mxCell id="1" parent="0" />
        <mxCell id="Ogw5_-1erEHhsI2lvcbA-1" value="Узкие места" style="rounded=1;whiteSpace=wrap;html=1;" vertex="1" parent="1">
          <mxGeometry x="740" y="370" width="120" height="60" as="geometry" />
        </mxCell>
        <mxCell id="Ogw5_-1erEHhsI2lvcbA-2" value="" style="shape=flexArrow;endArrow=classic;html=1;rounded=0;entryX=0;entryY=0.5;entryDx=0;entryDy=0;" edge="1" parent="1">
          <mxGeometry width="50" height="50" relative="1" as="geometry">
            <mxPoint x="110" y="399.5" as="sourcePoint" />
            <mxPoint x="740" y="399.5" as="targetPoint" />
          </mxGeometry>
        </mxCell>
        <mxCell id="Ogw5_-1erEHhsI2lvcbA-7" style="rounded=0;orthogonalLoop=1;jettySize=auto;html=1;exitX=0.5;exitY=1;exitDx=0;exitDy=0;" edge="1" parent="1" source="Ogw5_-1erEHhsI2lvcbA-3">
          <mxGeometry relative="1" as="geometry">
            <mxPoint x="280" y="390" as="targetPoint" />
          </mxGeometry>
        </mxCell>
        <mxCell id="Ogw5_-1erEHhsI2lvcbA-3" value="Персонал" style="rounded=0;whiteSpace=wrap;html=1;" vertex="1" parent="1">
          <mxGeometry x="40" y="60" width="120" height="60" as="geometry" />
        </mxCell>
        <mxCell id="Ogw5_-1erEHhsI2lvcbA-4" value="Инфраструктура" style="rounded=0;whiteSpace=wrap;html=1;" vertex="1" parent="1">
          <mxGeometry x="40" y="680" width="120" height="60" as="geometry" />
        </mxCell>
        <mxCell id="Ogw5_-1erEHhsI2lvcbA-5" value="" style="endArrow=classic;html=1;rounded=0;exitX=0.5;exitY=0;exitDx=0;exitDy=0;" edge="1" parent="1" source="Ogw5_-1erEHhsI2lvcbA-4">
          <mxGeometry width="50" height="50" relative="1" as="geometry">
            <mxPoint x="400" y="560" as="sourcePoint" />
            <mxPoint x="280" y="410" as="targetPoint" />
          </mxGeometry>
        </mxCell>
        <mxCell id="Ogw5_-1erEHhsI2lvcbA-8" style="rounded=0;orthogonalLoop=1;jettySize=auto;html=1;exitX=0.5;exitY=1;exitDx=0;exitDy=0;" edge="1" parent="1" source="Ogw5_-1erEHhsI2lvcbA-9">
          <mxGeometry relative="1" as="geometry">
            <mxPoint x="480" y="390" as="targetPoint" />
          </mxGeometry>
        </mxCell>
        <mxCell id="Ogw5_-1erEHhsI2lvcbA-9" value="Программное&lt;div&gt;обеспечение&lt;/div&gt;" style="rounded=0;whiteSpace=wrap;html=1;" vertex="1" parent="1">
          <mxGeometry x="254" y="60" width="120" height="60" as="geometry" />
        </mxCell>
        <mxCell id="Ogw5_-1erEHhsI2lvcbA-10" value="Интеграции" style="rounded=0;whiteSpace=wrap;html=1;" vertex="1" parent="1">
          <mxGeometry x="390" y="680" width="120" height="60" as="geometry" />
        </mxCell>
        <mxCell id="Ogw5_-1erEHhsI2lvcbA-11" value="" style="endArrow=classic;html=1;rounded=0;exitX=0.5;exitY=0;exitDx=0;exitDy=0;" edge="1" parent="1" source="Ogw5_-1erEHhsI2lvcbA-10">
          <mxGeometry width="50" height="50" relative="1" as="geometry">
            <mxPoint x="750" y="560" as="sourcePoint" />
            <mxPoint x="610" y="410" as="targetPoint" />
          </mxGeometry>
        </mxCell>
        <mxCell id="Ogw5_-1erEHhsI2lvcbA-12" value="Недостаток&lt;div&gt;разработчиков&lt;/div&gt;" style="text;html=1;align=center;verticalAlign=middle;whiteSpace=wrap;rounded=0;" vertex="1" parent="1">
          <mxGeometry x="47" y="190" width="60" height="30" as="geometry" />
        </mxCell>
        <mxCell id="Ogw5_-1erEHhsI2lvcbA-13" value="Нет опыта разработки микросервисов" style="text;html=1;align=center;verticalAlign=middle;whiteSpace=wrap;rounded=0;" vertex="1" parent="1">
          <mxGeometry x="15" y="250" width="170" height="30" as="geometry" />
        </mxCell>
        <mxCell id="Ogw5_-1erEHhsI2lvcbA-14" value="Отсутсвие&lt;div&gt;devOps-практик&lt;/div&gt;" style="text;html=1;align=center;verticalAlign=middle;whiteSpace=wrap;rounded=0;" vertex="1" parent="1">
          <mxGeometry x="470" y="190" width="100" height="30" as="geometry" />
        </mxCell>
        <mxCell id="Ogw5_-1erEHhsI2lvcbA-15" value="Интеграция&lt;div&gt;через файлы&lt;/div&gt;" style="text;html=1;align=center;verticalAlign=middle;whiteSpace=wrap;rounded=0;" vertex="1" parent="1">
          <mxGeometry x="374" y="610" width="80" height="30" as="geometry" />
        </mxCell>
        <mxCell id="Ogw5_-1erEHhsI2lvcbA-16" value="Различные форматы данных" style="text;html=1;align=center;verticalAlign=middle;whiteSpace=wrap;rounded=0;" vertex="1" parent="1">
          <mxGeometry x="397" y="530" width="106" height="30" as="geometry" />
        </mxCell>
        <mxCell id="Ogw5_-1erEHhsI2lvcbA-17" value="&quot;Ручной&quot; режим&lt;div&gt;интеграции&lt;/div&gt;" style="text;html=1;align=center;verticalAlign=middle;whiteSpace=wrap;rounded=0;" vertex="1" parent="1">
          <mxGeometry x="440" y="450" width="106" height="30" as="geometry" />
        </mxCell>
        <mxCell id="Ogw5_-1erEHhsI2lvcbA-18" value="Возможно сопротивление&lt;div&gt;изменениям&lt;/div&gt;" style="text;html=1;align=center;verticalAlign=middle;whiteSpace=wrap;rounded=0;" vertex="1" parent="1">
          <mxGeometry x="50" y="320" width="170" height="30" as="geometry" />
        </mxCell>
        <mxCell id="Ogw5_-1erEHhsI2lvcbA-19" value="Отсутствие механизмов&lt;div&gt;шифрования данных&lt;/div&gt;" style="text;html=1;align=center;verticalAlign=middle;whiteSpace=wrap;rounded=0;" vertex="1" parent="1">
          <mxGeometry x="254" y="290" width="170" height="30" as="geometry" />
        </mxCell>
        <mxCell id="Ogw5_-1erEHhsI2lvcbA-20" value="Отсутствие логирования&lt;div&gt;и мониторинга&lt;/div&gt;" style="text;html=1;align=center;verticalAlign=middle;whiteSpace=wrap;rounded=0;" vertex="1" parent="1">
          <mxGeometry x="200" y="210" width="170" height="30" as="geometry" />
        </mxCell>
        <mxCell id="Ogw5_-1erEHhsI2lvcbA-21" value="Процессы работы с персональными&amp;nbsp;&lt;span style=&quot;background-color: transparent; color: light-dark(rgb(0, 0, 0), rgb(255, 255, 255));&quot;&gt;данными&amp;nbsp;&lt;/span&gt;&lt;div&gt;&lt;span style=&quot;background-color: transparent; color: light-dark(rgb(0, 0, 0), rgb(255, 255, 255));&quot;&gt;не соответствуют 152-ФЗ&lt;/span&gt;&lt;/div&gt;" style="text;html=1;align=center;verticalAlign=middle;whiteSpace=wrap;rounded=0;" vertex="1" parent="1">
          <mxGeometry x="490" y="300" width="180" height="30" as="geometry" />
        </mxCell>
        <mxCell id="Ogw5_-1erEHhsI2lvcbA-22" value="Недостаток ресурсов" style="text;html=1;align=center;verticalAlign=middle;whiteSpace=wrap;rounded=0;" vertex="1" parent="1">
          <mxGeometry x="24" y="600" width="106" height="30" as="geometry" />
        </mxCell>
        <mxCell id="Ogw5_-1erEHhsI2lvcbA-23" value="Локальный&amp;nbsp;&lt;div&gt;сервер&lt;/div&gt;" style="text;html=1;align=center;verticalAlign=middle;whiteSpace=wrap;rounded=0;" vertex="1" parent="1">
          <mxGeometry x="47" y="530" width="106" height="30" as="geometry" />
        </mxCell>
        <mxCell id="Ogw5_-1erEHhsI2lvcbA-24" value="Нет возможности&amp;nbsp;&lt;div&gt;масштабироваться&lt;/div&gt;" style="text;html=1;align=center;verticalAlign=middle;whiteSpace=wrap;rounded=0;" vertex="1" parent="1">
          <mxGeometry x="100" y="450" width="106" height="30" as="geometry" />
        </mxCell>
        <mxCell id="Ogw5_-1erEHhsI2lvcbA-26" style="rounded=0;orthogonalLoop=1;jettySize=auto;html=1;exitX=0.5;exitY=1;exitDx=0;exitDy=0;" edge="1" parent="1" source="Ogw5_-1erEHhsI2lvcbA-25">
          <mxGeometry relative="1" as="geometry">
            <mxPoint x="700" y="390" as="targetPoint" />
          </mxGeometry>
        </mxCell>
        <mxCell id="Ogw5_-1erEHhsI2lvcbA-25" value="Процессы" style="rounded=0;whiteSpace=wrap;html=1;" vertex="1" parent="1">
          <mxGeometry x="490" y="60" width="120" height="60" as="geometry" />
        </mxCell>
        <mxCell id="Ogw5_-1erEHhsI2lvcbA-28" value="" style="endArrow=classic;html=1;rounded=0;" edge="1" parent="1">
          <mxGeometry width="50" height="50" relative="1" as="geometry">
            <mxPoint x="30" y="220" as="sourcePoint" />
            <mxPoint x="170" y="220" as="targetPoint" />
          </mxGeometry>
        </mxCell>
        <mxCell id="Ogw5_-1erEHhsI2lvcbA-29" value="" style="endArrow=classic;html=1;rounded=0;exitX=0.091;exitY=1.059;exitDx=0;exitDy=0;exitPerimeter=0;" edge="1" parent="1" source="Ogw5_-1erEHhsI2lvcbA-13">
          <mxGeometry width="50" height="50" relative="1" as="geometry">
            <mxPoint x="66" y="280" as="sourcePoint" />
            <mxPoint x="206" y="280" as="targetPoint" />
          </mxGeometry>
        </mxCell>
        <mxCell id="Ogw5_-1erEHhsI2lvcbA-30" value="" style="endArrow=classic;html=1;rounded=0;exitX=0;exitY=1;exitDx=0;exitDy=0;" edge="1" parent="1">
          <mxGeometry width="50" height="50" relative="1" as="geometry">
            <mxPoint x="47" y="350" as="sourcePoint" />
            <mxPoint x="253" y="350" as="targetPoint" />
          </mxGeometry>
        </mxCell>
        <mxCell id="Ogw5_-1erEHhsI2lvcbA-31" value="" style="endArrow=classic;html=1;rounded=0;" edge="1" parent="1">
          <mxGeometry width="50" height="50" relative="1" as="geometry">
            <mxPoint x="70" y="480" as="sourcePoint" />
            <mxPoint x="236" y="480" as="targetPoint" />
          </mxGeometry>
        </mxCell>
        <mxCell id="Ogw5_-1erEHhsI2lvcbA-32" value="" style="endArrow=classic;html=1;rounded=0;" edge="1" parent="1">
          <mxGeometry width="50" height="50" relative="1" as="geometry">
            <mxPoint x="40" y="560" as="sourcePoint" />
            <mxPoint x="176" y="560" as="targetPoint" />
          </mxGeometry>
        </mxCell>
        <mxCell id="Ogw5_-1erEHhsI2lvcbA-33" value="" style="endArrow=classic;html=1;rounded=0;" edge="1" parent="1">
          <mxGeometry width="50" height="50" relative="1" as="geometry">
            <mxPoint x="24" y="630" as="sourcePoint" />
            <mxPoint x="130" y="630" as="targetPoint" />
          </mxGeometry>
        </mxCell>
        <mxCell id="Ogw5_-1erEHhsI2lvcbA-34" value="" style="endArrow=classic;html=1;rounded=0;" edge="1" parent="1">
          <mxGeometry width="50" height="50" relative="1" as="geometry">
            <mxPoint x="230" y="240" as="sourcePoint" />
            <mxPoint x="390" y="240" as="targetPoint" />
          </mxGeometry>
        </mxCell>
        <mxCell id="Ogw5_-1erEHhsI2lvcbA-35" value="" style="endArrow=classic;html=1;rounded=0;" edge="1" parent="1">
          <mxGeometry width="50" height="50" relative="1" as="geometry">
            <mxPoint x="270" y="320" as="sourcePoint" />
            <mxPoint x="436" y="320" as="targetPoint" />
          </mxGeometry>
        </mxCell>
        <mxCell id="Ogw5_-1erEHhsI2lvcbA-36" value="" style="endArrow=classic;html=1;rounded=0;" edge="1" parent="1">
          <mxGeometry width="50" height="50" relative="1" as="geometry">
            <mxPoint x="470" y="220" as="sourcePoint" />
            <mxPoint x="610" y="220" as="targetPoint" />
          </mxGeometry>
        </mxCell>
        <mxCell id="Ogw5_-1erEHhsI2lvcbA-37" value="" style="endArrow=classic;html=1;rounded=0;" edge="1" parent="1">
          <mxGeometry width="50" height="50" relative="1" as="geometry">
            <mxPoint x="510" y="340" as="sourcePoint" />
            <mxPoint x="670" y="340" as="targetPoint" />
          </mxGeometry>
        </mxCell>
        <mxCell id="Ogw5_-1erEHhsI2lvcbA-39" value="" style="endArrow=classic;html=1;rounded=0;" edge="1" parent="1">
          <mxGeometry width="50" height="50" relative="1" as="geometry">
            <mxPoint x="410" y="480" as="sourcePoint" />
            <mxPoint x="570" y="480" as="targetPoint" />
          </mxGeometry>
        </mxCell>
        <mxCell id="Ogw5_-1erEHhsI2lvcbA-40" value="" style="endArrow=classic;html=1;rounded=0;" edge="1" parent="1">
          <mxGeometry width="50" height="50" relative="1" as="geometry">
            <mxPoint x="400" y="560" as="sourcePoint" />
            <mxPoint x="520" y="560" as="targetPoint" />
          </mxGeometry>
        </mxCell>
        <mxCell id="Ogw5_-1erEHhsI2lvcbA-41" value="" style="endArrow=classic;html=1;rounded=0;" edge="1" parent="1">
          <mxGeometry width="50" height="50" relative="1" as="geometry">
            <mxPoint x="370" y="640" as="sourcePoint" />
            <mxPoint x="470" y="640" as="targetPoint" />
          </mxGeometry>
        </mxCell>
      </root>
    </mxGraphModel>
  </diagram>
</mxfile>
